<?xml version="1.0" standalone="no"?><!DOCTYPE svg PUBLIC "-//W3C//DTD SVG 1.1//EN" "http://www.w3.org/Graphics/SVG/1.1/DTD/svg11.dtd"><svg t="1558776129850" class="icon" style="" viewBox="0 0 1302 1024" version="1.1" xmlns="http://www.w3.org/2000/svg" p-id="1516" xmlns:xlink="http://www.w3.org/1999/xlink" width="254.296875" height="200"><defs><style type="text/css"></style></defs><path d="M1157.033024 0.000087H144.66167A144.83523 144.83523 0 0 0 0.347119 144.574978v734.763265A144.83523 144.83523 0 0 0 145.008789 1023.999913h1012.024235a144.83523 144.83523 0 0 0 145.008789-144.66167V144.574978A144.83523 144.83523 0 0 0 1157.033024 0.000087z m92.941001 656.227685H853.73816a144.271162 144.271162 0 1 1 0-288.542324h396.235865zM853.73816 315.61766a196.33895 196.33895 0 1 0 0 392.6779h396.235865v171.042683A92.680662 92.680662 0 0 1 1157.380143 971.932125H144.66167a92.680662 92.680662 0 0 1-92.246764-92.593882V144.574978A92.680662 92.680662 0 0 1 144.66167 52.067875h1012.371354a92.680662 92.680662 0 0 1 92.941001 92.507103v171.042682z" p-id="1517"></path><path d="M856.949007 512m-43.389823 0a43.389823 43.389823 0 1 0 86.779646 0 43.389823 43.389823 0 1 0-86.779646 0Z" p-id="1518"></path></svg>