<?xml version="1.0" standalone="no"?><!DOCTYPE svg PUBLIC "-//W3C//DTD SVG 1.1//EN" "http://www.w3.org/Graphics/SVG/1.1/DTD/svg11.dtd"><svg t="1558776008206" class="icon" style="" viewBox="0 0 1024 1024" version="1.1" xmlns="http://www.w3.org/2000/svg" p-id="2643" xmlns:xlink="http://www.w3.org/1999/xlink" width="200" height="200"><defs><style type="text/css"></style></defs><path d="M832 176H494.4c-14.4 0-28.8 4.8-41.6 14.4L422.4 216c-27.2 22.4-67.2 22.4-96 0L296 190.4c-9.6-9.6-24-14.4-38.4-14.4H192c-70.4 0-128 57.6-128 128v416c0 70.4 57.6 128 128 128h52.8c20.8 0 40-9.6 51.2-25.6 52.8-72 104-72 156.8 0 12.8 16 32 25.6 51.2 25.6h328c70.4 0 128-57.6 128-128V304c0-70.4-57.6-128-128-128z m64 544c0 35.2-28.8 64-64 64H505.6c-38.4-52.8-83.2-80-129.6-80s-91.2 27.2-129.6 80H192c-35.2 0-64-28.8-64-64V304c0-35.2 28.8-64 64-64h65.6l30.4 25.6c51.2 43.2 126.4 43.2 177.6 0L496 240h336c35.2 0 64 28.8 64 64v416z" p-id="2644"></path><path d="M384 368c-17.6 0-32 14.4-32 32v64c0 17.6 14.4 32 32 32s32-14.4 32-32v-64c0-17.6-14.4-32-32-32z m352 32H544c-17.6 0-32 14.4-32 32s14.4 32 32 32h192c17.6 0 32-14.4 32-32s-14.4-32-32-32z m0 160H544c-17.6 0-32 14.4-32 32s14.4 32 32 32h192c17.6 0 32-14.4 32-32s-14.4-32-32-32z m-352-32c-17.6 0-32 14.4-32 32v64c0 17.6 14.4 32 32 32s32-14.4 32-32v-64c0-17.6-14.4-32-32-32z" p-id="2645"></path></svg>